<mxfile host="app.diagrams.net" modified="2022-11-21T04:02:39.134Z" agent="5.0 (Windows)" etag="rUFoZV1pC_LZL6KSNaUW" version="20.5.3" type="github">
  <diagram id="lvOmDgzRvjtnipGTjZTB" name="Page-1">
    <mxGraphModel dx="1038" dy="564" grid="1" gridSize="10" guides="1" tooltips="1" connect="1" arrows="1" fold="1" page="1" pageScale="1" pageWidth="850" pageHeight="1100" math="0" shadow="0">
      <root>
        <mxCell id="0" />
        <mxCell id="1" parent="0" />
        <mxCell id="_REt8d7B9zjdkL0efPJs-1" value="Appointment Schedular" style="shape=umlActor;verticalLabelPosition=bottom;verticalAlign=top;outlineConnect=0;fontFamily=Times New Roman;html=1;fontSize=15;horizontal=1;fontStyle=2" parent="1" vertex="1">
          <mxGeometry x="90" y="300" width="30" height="60" as="geometry" />
        </mxCell>
        <mxCell id="_REt8d7B9zjdkL0efPJs-2" value="" style="swimlane;startSize=0;" parent="1" vertex="1">
          <mxGeometry x="190" y="50" width="470" height="550" as="geometry">
            <mxRectangle x="170" y="60" width="50" height="40" as="alternateBounds" />
          </mxGeometry>
        </mxCell>
        <mxCell id="_REt8d7B9zjdkL0efPJs-4" value="&lt;div&gt;Search Profile&lt;/div&gt;" style="ellipse;whiteSpace=wrap;html=1;fontFamily=Times New Roman;fontSize=16;" parent="_REt8d7B9zjdkL0efPJs-2" vertex="1">
          <mxGeometry x="180.5" y="110" width="115" height="50" as="geometry" />
        </mxCell>
        <mxCell id="_REt8d7B9zjdkL0efPJs-6" value="&lt;div&gt;View Profile&lt;/div&gt;" style="ellipse;whiteSpace=wrap;html=1;fontFamily=Times New Roman;fontSize=16;verticalAlign=middle;" parent="_REt8d7B9zjdkL0efPJs-2" vertex="1">
          <mxGeometry x="183.5" y="170" width="100" height="50" as="geometry" />
        </mxCell>
        <mxCell id="_REt8d7B9zjdkL0efPJs-9" value="Request Rescheduling Appointment" style="ellipse;whiteSpace=wrap;html=1;fontFamily=Times New Roman;fontSize=16;verticalAlign=bottom;" parent="_REt8d7B9zjdkL0efPJs-2" vertex="1">
          <mxGeometry x="123.75" y="490" width="180" height="50" as="geometry" />
        </mxCell>
        <mxCell id="_REt8d7B9zjdkL0efPJs-10" value="Request Appointment Cancellation" style="ellipse;whiteSpace=wrap;html=1;fontFamily=Times New Roman;fontSize=16;" parent="_REt8d7B9zjdkL0efPJs-2" vertex="1">
          <mxGeometry x="123.75" y="430" width="185" height="50" as="geometry" />
        </mxCell>
        <mxCell id="_REt8d7B9zjdkL0efPJs-11" value="Enter Appointment Slots" style="ellipse;whiteSpace=wrap;html=1;fontFamily=Times New Roman;fontSize=16;verticalAlign=middle;" parent="_REt8d7B9zjdkL0efPJs-2" vertex="1">
          <mxGeometry x="280" y="210" width="180" height="50" as="geometry" />
        </mxCell>
        <mxCell id="_REt8d7B9zjdkL0efPJs-12" value="Register/Login" style="ellipse;whiteSpace=wrap;html=1;fontFamily=Times New Roman;fontSize=16;verticalAlign=middle;spacing=0;" parent="_REt8d7B9zjdkL0efPJs-2" vertex="1">
          <mxGeometry x="173.25" y="10" width="120.5" height="30" as="geometry" />
        </mxCell>
        <mxCell id="eb6TFfp-bG-CCK0Az0Hd-1" value="&amp;lt;&amp;lt;include&amp;gt;&amp;gt;" style="verticalAlign=bottom;endArrow=open;dashed=1;endSize=8;rounded=0;fontSize=12;entryX=1;entryY=0.5;entryDx=0;entryDy=0;fontColor=#000000;labelBorderColor=none;html=1;strokeColor=#FF3333;exitX=1;exitY=0.5;exitDx=0;exitDy=0;" parent="_REt8d7B9zjdkL0efPJs-2" source="_REt8d7B9zjdkL0efPJs-6" target="_REt8d7B9zjdkL0efPJs-4" edge="1">
          <mxGeometry relative="1" as="geometry">
            <mxPoint x="255" y="115" as="sourcePoint" />
            <mxPoint x="155" y="265" as="targetPoint" />
            <Array as="points">
              <mxPoint x="360" y="180" />
            </Array>
          </mxGeometry>
        </mxCell>
        <mxCell id="_REt8d7B9zjdkL0efPJs-5" value="View/Choose Appointment Slots" style="ellipse;whiteSpace=wrap;html=1;fontFamily=Times New Roman;fontSize=16;verticalAlign=top;spacing=0;" parent="_REt8d7B9zjdkL0efPJs-2" vertex="1">
          <mxGeometry x="148.75" y="250" width="160" height="50" as="geometry" />
        </mxCell>
        <mxCell id="_REt8d7B9zjdkL0efPJs-8" value="Request Appointment" style="ellipse;whiteSpace=wrap;html=1;fontFamily=Times New Roman;fontSize=16;verticalAlign=top;spacing=0;" parent="_REt8d7B9zjdkL0efPJs-2" vertex="1">
          <mxGeometry x="145" y="370" width="120" height="50" as="geometry" />
        </mxCell>
        <mxCell id="eb6TFfp-bG-CCK0Az0Hd-5" value="Cancel Appointment" style="ellipse;whiteSpace=wrap;html=1;fontFamily=Times New Roman;fontSize=16;verticalAlign=middle;" parent="_REt8d7B9zjdkL0efPJs-2" vertex="1">
          <mxGeometry x="265" y="370" width="150" height="50" as="geometry" />
        </mxCell>
        <mxCell id="39TF0AT_lqtiL9UudRA2-2" value="&amp;lt;&amp;lt;include&amp;gt;&amp;gt;" style="verticalAlign=bottom;endArrow=open;dashed=1;endSize=8;rounded=0;fontSize=12;entryX=1;entryY=0.5;entryDx=0;entryDy=0;fontColor=#000000;labelBorderColor=none;html=1;strokeColor=#FF3333;exitX=0.624;exitY=0;exitDx=0;exitDy=0;exitPerimeter=0;" parent="_REt8d7B9zjdkL0efPJs-2" source="_REt8d7B9zjdkL0efPJs-11" target="_REt8d7B9zjdkL0efPJs-12" edge="1">
          <mxGeometry relative="1" as="geometry">
            <mxPoint x="25" y="145" as="sourcePoint" />
            <mxPoint x="25" y="70" as="targetPoint" />
            <Array as="points">
              <mxPoint x="430" y="70" />
            </Array>
          </mxGeometry>
        </mxCell>
        <mxCell id="39TF0AT_lqtiL9UudRA2-4" value="&amp;lt;&amp;lt;include&amp;gt;&amp;gt;" style="verticalAlign=bottom;endArrow=open;dashed=1;endSize=8;rounded=0;fontSize=12;entryX=0;entryY=0.5;entryDx=0;entryDy=0;fontColor=#000000;labelBorderColor=none;html=1;strokeColor=#FF3333;exitX=0;exitY=0;exitDx=0;exitDy=0;" parent="_REt8d7B9zjdkL0efPJs-2" source="_REt8d7B9zjdkL0efPJs-5" target="_REt8d7B9zjdkL0efPJs-12" edge="1">
          <mxGeometry relative="1" as="geometry">
            <mxPoint x="10" y="260" as="sourcePoint" />
            <mxPoint x="13" y="190" as="targetPoint" />
            <Array as="points">
              <mxPoint x="50" y="80" />
            </Array>
          </mxGeometry>
        </mxCell>
        <mxCell id="39TF0AT_lqtiL9UudRA2-5" value="&amp;lt;&amp;lt;include&amp;gt;&amp;gt;" style="verticalAlign=bottom;endArrow=open;dashed=1;endSize=8;rounded=0;fontSize=12;entryX=0;entryY=0.5;entryDx=0;entryDy=0;fontColor=#000000;labelBorderColor=none;html=1;strokeColor=#FF3333;exitX=0;exitY=0.5;exitDx=0;exitDy=0;" parent="_REt8d7B9zjdkL0efPJs-2" source="_REt8d7B9zjdkL0efPJs-8" target="_REt8d7B9zjdkL0efPJs-5" edge="1">
          <mxGeometry relative="1" as="geometry">
            <mxPoint x="20" y="295" as="sourcePoint" />
            <mxPoint x="23" y="225" as="targetPoint" />
            <Array as="points">
              <mxPoint x="70" y="290" />
            </Array>
          </mxGeometry>
        </mxCell>
        <mxCell id="03ECuuHb7yugv9BrIzod-2" value="&lt;div&gt;Select/Change Role&lt;br&gt;&lt;/div&gt;" style="ellipse;whiteSpace=wrap;html=1;fontFamily=Times New Roman;fontSize=16;verticalAlign=middle;" parent="_REt8d7B9zjdkL0efPJs-2" vertex="1">
          <mxGeometry x="160.5" y="50" width="155" height="50" as="geometry" />
        </mxCell>
        <mxCell id="-hGEcgP5tRJAI1TSPwoL-1" value="Manage Appointment Request" style="ellipse;whiteSpace=wrap;html=1;fontFamily=Times New Roman;fontSize=16;verticalAlign=middle;" vertex="1" parent="_REt8d7B9zjdkL0efPJs-2">
          <mxGeometry x="148" y="310" width="180" height="50" as="geometry" />
        </mxCell>
        <mxCell id="_REt8d7B9zjdkL0efPJs-14" value="&lt;div&gt;Appointment Receiver&lt;/div&gt;&lt;div&gt;&lt;br&gt;&lt;/div&gt;" style="shape=umlActor;verticalLabelPosition=bottom;verticalAlign=middle;html=1;fontFamily=Times New Roman;fontSize=16;horizontal=1;fontStyle=2" parent="1" vertex="1">
          <mxGeometry x="750" y="300" width="30" height="60" as="geometry" />
        </mxCell>
        <mxCell id="_REt8d7B9zjdkL0efPJs-15" value="" style="endArrow=none;html=1;rounded=0;fontFamily=Times New Roman;fontSize=15;fontColor=#FF3333;exitX=1;exitY=0.5;exitDx=0;exitDy=0;entryX=0;entryY=0.3333333333333333;entryDx=0;entryDy=0;entryPerimeter=0;" parent="1" source="_REt8d7B9zjdkL0efPJs-12" target="_REt8d7B9zjdkL0efPJs-14" edge="1">
          <mxGeometry width="50" height="50" relative="1" as="geometry">
            <mxPoint x="463" y="145" as="sourcePoint" />
            <mxPoint x="600" y="400" as="targetPoint" />
          </mxGeometry>
        </mxCell>
        <mxCell id="_REt8d7B9zjdkL0efPJs-16" value="" style="endArrow=none;html=1;rounded=0;fontFamily=Times New Roman;fontSize=15;fontColor=#FF3333;entryX=1;entryY=0.3333333333333333;entryDx=0;entryDy=0;entryPerimeter=0;exitX=0;exitY=0.5;exitDx=0;exitDy=0;" parent="1" source="_REt8d7B9zjdkL0efPJs-8" target="_REt8d7B9zjdkL0efPJs-1" edge="1">
          <mxGeometry width="50" height="50" relative="1" as="geometry">
            <mxPoint x="270" y="440" as="sourcePoint" />
            <mxPoint x="320" y="390" as="targetPoint" />
          </mxGeometry>
        </mxCell>
        <mxCell id="_REt8d7B9zjdkL0efPJs-18" value="" style="endArrow=none;html=1;rounded=0;fontFamily=Times New Roman;fontSize=15;fontColor=#FF3333;exitX=1;exitY=0.3333333333333333;exitDx=0;exitDy=0;exitPerimeter=0;entryX=0;entryY=0.5;entryDx=0;entryDy=0;" parent="1" source="_REt8d7B9zjdkL0efPJs-1" target="_REt8d7B9zjdkL0efPJs-4" edge="1">
          <mxGeometry width="50" height="50" relative="1" as="geometry">
            <mxPoint x="290" y="290" as="sourcePoint" />
            <mxPoint x="340" y="240" as="targetPoint" />
          </mxGeometry>
        </mxCell>
        <mxCell id="_REt8d7B9zjdkL0efPJs-19" value="" style="endArrow=none;html=1;rounded=0;fontFamily=Times New Roman;fontSize=15;fontColor=#FF3333;entryX=0;entryY=0.3333333333333333;entryDx=0;entryDy=0;entryPerimeter=0;exitX=1;exitY=0.5;exitDx=0;exitDy=0;" parent="1" source="_REt8d7B9zjdkL0efPJs-4" target="_REt8d7B9zjdkL0efPJs-14" edge="1">
          <mxGeometry width="50" height="50" relative="1" as="geometry">
            <mxPoint x="470" y="260" as="sourcePoint" />
            <mxPoint x="520" y="210" as="targetPoint" />
          </mxGeometry>
        </mxCell>
        <mxCell id="_REt8d7B9zjdkL0efPJs-22" value="" style="endArrow=none;html=1;rounded=0;fontFamily=Times New Roman;fontSize=15;fontColor=#FF3333;exitX=1;exitY=0.3333333333333333;exitDx=0;exitDy=0;exitPerimeter=0;entryX=0;entryY=0.5;entryDx=0;entryDy=0;" parent="1" source="_REt8d7B9zjdkL0efPJs-1" target="_REt8d7B9zjdkL0efPJs-5" edge="1">
          <mxGeometry width="50" height="50" relative="1" as="geometry">
            <mxPoint x="360" y="390" as="sourcePoint" />
            <mxPoint x="310" y="375" as="targetPoint" />
          </mxGeometry>
        </mxCell>
        <mxCell id="_REt8d7B9zjdkL0efPJs-23" value="" style="endArrow=none;html=1;rounded=0;fontFamily=Times New Roman;fontSize=15;fontColor=#FF3333;exitX=1;exitY=0.3333333333333333;exitDx=0;exitDy=0;exitPerimeter=0;entryX=0;entryY=0.5;entryDx=0;entryDy=0;" parent="1" source="_REt8d7B9zjdkL0efPJs-1" target="_REt8d7B9zjdkL0efPJs-9" edge="1">
          <mxGeometry width="50" height="50" relative="1" as="geometry">
            <mxPoint x="360" y="390" as="sourcePoint" />
            <mxPoint x="410" y="340" as="targetPoint" />
          </mxGeometry>
        </mxCell>
        <mxCell id="_REt8d7B9zjdkL0efPJs-24" value="" style="endArrow=none;html=1;rounded=0;fontFamily=Times New Roman;fontSize=15;fontColor=#FF3333;exitX=1;exitY=0.5;exitDx=0;exitDy=0;entryX=0;entryY=0.3333333333333333;entryDx=0;entryDy=0;entryPerimeter=0;" parent="1" source="_REt8d7B9zjdkL0efPJs-9" target="_REt8d7B9zjdkL0efPJs-14" edge="1">
          <mxGeometry width="50" height="50" relative="1" as="geometry">
            <mxPoint x="500" y="290" as="sourcePoint" />
            <mxPoint x="780" y="270" as="targetPoint" />
          </mxGeometry>
        </mxCell>
        <mxCell id="_REt8d7B9zjdkL0efPJs-25" value="" style="endArrow=none;html=1;rounded=0;fontFamily=Times New Roman;fontSize=15;fontColor=#FF3333;exitX=0;exitY=0.5;exitDx=0;exitDy=0;entryX=1;entryY=0.3333333333333333;entryDx=0;entryDy=0;entryPerimeter=0;" parent="1" source="_REt8d7B9zjdkL0efPJs-10" target="_REt8d7B9zjdkL0efPJs-1" edge="1">
          <mxGeometry width="50" height="50" relative="1" as="geometry">
            <mxPoint x="360" y="390" as="sourcePoint" />
            <mxPoint x="410" y="340" as="targetPoint" />
          </mxGeometry>
        </mxCell>
        <mxCell id="_REt8d7B9zjdkL0efPJs-26" value="" style="endArrow=none;html=1;rounded=0;fontFamily=Times New Roman;fontSize=15;fontColor=#FF3333;entryX=0;entryY=0.3333333333333333;entryDx=0;entryDy=0;entryPerimeter=0;exitX=1;exitY=0.5;exitDx=0;exitDy=0;" parent="1" source="_REt8d7B9zjdkL0efPJs-11" target="_REt8d7B9zjdkL0efPJs-14" edge="1">
          <mxGeometry width="50" height="50" relative="1" as="geometry">
            <mxPoint x="360" y="390" as="sourcePoint" />
            <mxPoint x="410" y="340" as="targetPoint" />
          </mxGeometry>
        </mxCell>
        <mxCell id="_REt8d7B9zjdkL0efPJs-27" value="" style="endArrow=none;html=1;rounded=0;fontFamily=Times New Roman;fontSize=15;fontColor=#FF3333;exitX=1;exitY=0.3333333333333333;exitDx=0;exitDy=0;exitPerimeter=0;entryX=0.025;entryY=0.7;entryDx=0;entryDy=0;entryPerimeter=0;" parent="1" source="_REt8d7B9zjdkL0efPJs-1" target="_REt8d7B9zjdkL0efPJs-12" edge="1">
          <mxGeometry width="50" height="50" relative="1" as="geometry">
            <mxPoint x="360" y="390" as="sourcePoint" />
            <mxPoint x="410" y="340" as="targetPoint" />
          </mxGeometry>
        </mxCell>
        <mxCell id="eb6TFfp-bG-CCK0Az0Hd-6" value="" style="endArrow=none;html=1;rounded=0;labelBorderColor=none;strokeColor=#000000;fontSize=12;fontColor=#000000;entryX=0.955;entryY=0.26;entryDx=0;entryDy=0;exitX=0;exitY=0.3333333333333333;exitDx=0;exitDy=0;exitPerimeter=0;entryPerimeter=0;" parent="1" source="_REt8d7B9zjdkL0efPJs-14" target="eb6TFfp-bG-CCK0Az0Hd-5" edge="1">
          <mxGeometry width="50" height="50" relative="1" as="geometry">
            <mxPoint x="690" y="360" as="sourcePoint" />
            <mxPoint x="330" y="380" as="targetPoint" />
          </mxGeometry>
        </mxCell>
        <mxCell id="03ECuuHb7yugv9BrIzod-3" value="" style="endArrow=none;html=1;rounded=0;fontFamily=Times New Roman;fontSize=15;fontColor=#FF3333;entryX=1;entryY=0.3333333333333333;entryDx=0;entryDy=0;entryPerimeter=0;exitX=0;exitY=0.5;exitDx=0;exitDy=0;" parent="1" source="03ECuuHb7yugv9BrIzod-2" target="_REt8d7B9zjdkL0efPJs-1" edge="1">
          <mxGeometry width="50" height="50" relative="1" as="geometry">
            <mxPoint x="360.5" y="445" as="sourcePoint" />
            <mxPoint x="140" y="380" as="targetPoint" />
          </mxGeometry>
        </mxCell>
        <mxCell id="03ECuuHb7yugv9BrIzod-4" value="" style="endArrow=none;html=1;rounded=0;fontFamily=Times New Roman;fontSize=15;fontColor=#FF3333;entryX=1;entryY=0.5;entryDx=0;entryDy=0;exitX=0;exitY=0.3333333333333333;exitDx=0;exitDy=0;exitPerimeter=0;" parent="1" source="_REt8d7B9zjdkL0efPJs-14" target="03ECuuHb7yugv9BrIzod-2" edge="1">
          <mxGeometry width="50" height="50" relative="1" as="geometry">
            <mxPoint x="370.5" y="455" as="sourcePoint" />
            <mxPoint x="150" y="390" as="targetPoint" />
          </mxGeometry>
        </mxCell>
        <mxCell id="-hGEcgP5tRJAI1TSPwoL-2" value="" style="endArrow=none;html=1;rounded=0;entryX=0;entryY=0.3333333333333333;entryDx=0;entryDy=0;entryPerimeter=0;exitX=1;exitY=0.5;exitDx=0;exitDy=0;" edge="1" parent="1" source="-hGEcgP5tRJAI1TSPwoL-1" target="_REt8d7B9zjdkL0efPJs-14">
          <mxGeometry width="50" height="50" relative="1" as="geometry">
            <mxPoint x="530" y="410" as="sourcePoint" />
            <mxPoint x="580" y="360" as="targetPoint" />
          </mxGeometry>
        </mxCell>
      </root>
    </mxGraphModel>
  </diagram>
</mxfile>
